<?xml version="1.0" encoding="UTF-8"?><svg xmlns="http://www.w3.org/2000/svg" width="1920" height="1080" viewBox="0 0 1920 1080"><defs><style>.cls-1,.cls-2{fill:none;}.cls-3{fill:#c1c7cc;}.cls-4{fill:#c1c7cc;}.cls-5{fill:#7ebdff;}.cls-6{fill-rule:evenodd;}.cls-6,.cls-7{fill:#d0d4d8;}.cls-8{fill:#bfc0c3;}.cls-9{fill:#e0e2e5;}.cls-10{fill:#43464a;}.cls-11{fill:#e0e2e5;}.cls-12{fill:#43464a;}.cls-13{fill:#979ea4;}.cls-14{fill:#0096e8;}.cls-15{fill:#595e62;}.cls-16{fill:#232628;}.cls-17{fill:#232628;}.cls-18{fill:#005587;}.cls-19{fill:#00629a;}.cls-20{fill:#003e64;}.cls-21{fill:#4e5256;}.cls-22{fill:#0088d4;}.cls-23{fill:#383b3e;}.cls-2{stroke:#383b3e;stroke-miterlimit:10;stroke-width:9.843px;}.cls-24{fill:#eff1f2;}.cls-25{fill:#b2b9c0;}.cls-26{fill:#b2b9c0;}.cls-27{fill:#4e5256;}.cls-28{fill:#8a9097;}.cls-29{fill:#383b3e;}.cls-30{fill:#0088d4;}.cls-31{fill:#003253;}.cls-32{fill:#003253;}.cls-33{fill:#d0d4d8;}.cls-34{fill:#00a4fd;}.cls-35{fill:#00a4fd;}</style></defs><g id="BG"><rect class="cls-24" width="1920" height="1080"/><rect id="Rectangle-3" class="cls-11" x="421.921" y="317.199" width="286.532" height="21.774"/><path id="Shape" class="cls-11" d="M581.094,362.387v102.142h102.135v-102.142h-102.135,0ZM647.818,396.547h-31.315c-2.321-.269-4.071-2.235-4.071-4.571s1.751-4.302,4.071-4.571h31.338c2.321.269,4.071,2.235,4.071,4.571s-1.751,4.302-4.071,4.571h-.023Z"/><path id="Shape-2" class="cls-11" d="M446.816,464.53h102.135v-102.142h-102.135v102.142h0ZM482.203,387.39h31.345c2.321.269,4.071,2.235,4.071,4.571s-1.751,4.302-4.071,4.571h-31.345c-2.321-.269-4.071-2.235-4.071-4.571s1.751-4.302,4.071-4.571h0Z"/><path id="Path" class="cls-11" d="M630.493,679.03v-13.506c.102-1.302,1.236-2.278,2.539-2.186h18.154c1.302-.088,2.433.886,2.539,2.186v13.506h-23.231Z"/><path id="Path-2" class="cls-11" d="M545.469,515.547c-4.384,0-7.938,3.554-7.938,7.938s3.554,7.938,7.938,7.938h74.67c4.384,0,7.938-3.554,7.938-7.938s-3.554-7.938-7.938-7.938h-74.67Z"/><path id="Shape-3" class="cls-7" d="M540.445,679.03h-72.3c-3.958-.002-7.754,1.569-10.553,4.366-2.799,2.798-4.372,6.593-4.372,10.551v84.05c0,8.244,6.681,14.928,14.925,14.932h72.285c8.247,0,14.932-6.686,14.932-14.932v-84.05c0-8.239-6.679-14.917-14.917-14.917h0ZM491.138,704.907l-12.578,14.334c-1.602,1.828-4.168,2.473-6.444,1.62s-3.787-3.025-3.794-5.455v-14.334c0-3.229,2.615-5.848,5.844-5.852h12.578c2.29.003,4.367,1.344,5.313,3.43.946,2.085.587,4.531-.919,6.257h0Z"/><path id="Shape-4" class="cls-7" d="M661.623,679.03h-72.308c-8.239,0-14.917,6.679-14.917,14.917v84.058c.004,8.241,6.684,14.921,14.925,14.925h72.292c8.243,0,14.925-6.682,14.925-14.925v-84.058c0-8.239-6.679-14.917-14.917-14.917h0ZM589.53,715.399v-14.327c0-3.22,2.609-5.832,5.829-5.836h12.586c2.293-.003,4.376,1.337,5.323,3.425s.584,4.538-.929,6.261l-12.586,14.35c-1.601,1.825-4.164,2.468-6.437,1.615s-3.781-3.023-3.787-5.45v-.038h0Z"/><rect id="Rectangle-6" class="cls-11" x="477.755" y="569.387" width="210.09" height="51.217"/><path id="Path-3" class="cls-11" d="M515.435,679.038v-13.514c.102-1.299,1.231-2.274,2.531-2.186h18.169c1.302-.088,2.433.886,2.539,2.186v13.514h-23.239Z"/><rect id="Rectangle-7" class="cls-7" x="477.755" y="537.075" width="210.09" height="26.674"/><path id="Shape-5" class="cls-11" d="M708.453,300.241v148.021h-286.532v-148.021h-19.128v516.924h324.78V300.241h-19.12,0ZM421.921,470.941h286.532v149.67h-286.532v-149.67h0ZM708.537,792.929h-286.563v-149.678h286.563v149.678h0Z"/><rect id="Rectangle-3-2" class="cls-11" x="727.573" y="317.008" width="286.624" height="21.774"/><path id="Shape-2" class="cls-11" d="M886.838,362.196v102.142h102.135v-102.142h-102.135,0ZM953.562,396.356h-31.315c-2.321-.269-4.071-2.235-4.071-4.571s1.751-4.302,4.071-4.571h31.338c2.321.269,4.071,2.235,4.071,4.571s-1.751,4.302-4.071,4.571h-.023Z"/><path id="Shape-2-2" class="cls-11" d="M752.56,464.339h102.135v-102.142h-102.135v102.142h0ZM787.947,387.199h31.345c2.321.269,4.071,2.235,4.071,4.571s-1.751,4.302-4.071,4.571h-31.345c-2.321-.269-4.071-2.235-4.071-4.571s1.751-4.302,4.071-4.571h0Z"/><path id="Path-2" class="cls-11" d="M936.237,678.839v-13.506c.102-1.302,1.236-2.278,2.539-2.186h18.154c1.302-.088,2.433.886,2.539,2.186v13.506h-23.231Z"/><path id="Path-2-2" class="cls-11" d="M851.213,515.356c-4.384,0-7.938,3.554-7.938,7.938s3.554,7.938,7.938,7.938h74.67c4.384,0,7.938-3.554,7.938-7.938s-3.554-7.938-7.938-7.938h-74.67Z"/><path id="Shape-3-2" class="cls-7" d="M846.189,678.839h-72.3c-3.958-.002-7.754,1.569-10.553,4.366-2.799,2.798-4.372,6.593-4.372,10.551v84.05c0,8.244,6.681,14.928,14.925,14.932h72.285c8.247,0,14.932-6.686,14.932-14.932v-84.05c0-8.239-6.679-14.917-14.917-14.917h0ZM796.882,704.716l-12.578,14.334c-1.602,1.828-4.168,2.473-6.444,1.62s-3.787-3.025-3.794-5.455v-14.334c0-3.229,2.615-5.848,5.844-5.852h12.578c2.29.003,4.367,1.344,5.313,3.43.946,2.085.587,4.531-.919,6.257h0Z"/><path id="Shape-4-2" class="cls-7" d="M967.367,678.839h-72.308c-8.239,0-14.917,6.679-14.917,14.917v84.058c.004,8.241,6.684,14.921,14.925,14.925h72.292c8.243,0,14.925-6.682,14.925-14.925v-84.058c0-8.239-6.679-14.917-14.917-14.917h0ZM895.274,715.208v-14.327c0-3.22,2.609-5.832,5.829-5.836h12.586c2.293-.003,4.376,1.337,5.323,3.425s.584,4.538-.929,6.261l-12.586,14.35c-1.601,1.825-4.164,2.468-6.437,1.615s-3.781-3.023-3.787-5.45v-.038h0Z"/><rect id="Rectangle-6-2" class="cls-11" x="783.499" y="569.196" width="210.09" height="51.217"/><path id="Path-3-2" class="cls-11" d="M821.179,678.846v-13.514c.102-1.299,1.231-2.274,2.531-2.186h18.169c1.302-.088,2.433.886,2.539,2.186v13.514h-23.239Z"/><rect id="Rectangle-7-2" class="cls-7" x="783.499" y="536.884" width="210.09" height="26.674"/><path id="Shape-5-2" class="cls-11" d="M1014.197,300.05v148.021h-286.532v-148.021h-19.128v516.924h324.78V300.05h-19.12,0ZM727.665,470.75h286.532v149.67h-286.532v-149.67h0ZM1014.282,792.738h-286.563v-149.678h286.563v149.678h0Z"/><rect id="Rectangle-8" class="cls-7" x="1117.077" y="755.264" width="177.717" height="61.901" rx="18.385" ry="18.385"/><rect id="Rectangle-9" class="cls-7" x="1117.077" y="686.652" width="177.717" height="61.901" rx="18.385" ry="18.385"/><circle id="Oval" class="cls-7" cx="1393.621" cy="728.125" r="88.849"/><circle id="Oval-2" class="cls-24" cx="1393.621" cy="727.668" r="59.975"/><path id="Path-4" class="cls-11" d="M1410.591,718.74l34.917,20.193c5.725-26.412-9.308-52.91-34.917-61.545v41.353h0Z"/><path id="Path-5" class="cls-11" d="M1393.621,748.125l-34.47,19.9c19.848,16.968,49.092,16.968,68.94,0l-34.47-19.9h0Z"/><path id="Path-6" class="cls-11" d="M1376.66,718.74v-41.38c-25.622,8.637-40.658,35.151-34.917,61.573l34.917-20.193h0Z"/><rect class="cls-1" width="1920" height="1080"/><path id="Shape-3" class="cls-7" d="M1818.153,816.974h15.42l-19.51-522.15v-.17c0-16.28-6.2-28.15-18.94-36.28-13.63-8.68-34.7-13.09-62.65-13.09-28.25,0-48.67,6.43-60.68,19.1-10.19,10.76-11.71,23.56-11.71,30.23,0,5-6,152.87-12.55,315h-.3v7.42c-2.75,67.62-5.59,137.35-8.15,199.94h15.43l1.88-46.76h160l1.76,46.76ZM1813.153,682.214h-153.22l2.3-57.19h148.75l2.17,57.19ZM1807.733,537.024h-141.96l2.29-57.19h137.49l2.18,57.19ZM1705.783,415.084h62.37c4.76-.002,9.314-1.941,12.615-5.37,3.301-3.429,5.065-8.054,4.885-12.81l-1-26.55h16.81l3.52,94.08h-136.3l3.79-94.08h16.87c-.34,8.34-.69,17.15-1.07,26.48-.19,4.768,1.569,9.407,4.872,12.85,3.303,3.443,7.866,5.393,12.638,5.4h0ZM1704.243,355.584h63.81c2.41,0,4.35,2.86,4.35,6.38s-1.94,6.38-4.35,6.38h-63.81c-2.39,0-4.34-2.86-4.34-6.38s1.95-6.38,4.34-6.38ZM1699.903,334.234c0-3.54,2-6.39,4.34-6.39h63.81c2.41,0,4.35,2.85,4.35,6.39s-1.94,6.42-4.35,6.42h-63.81c-2.39,0-4.34-2.9-4.34-6.42h0ZM1704.243,383.334h63.81c2.41,0,4.35,2.86,4.35,6.38s-1.94,6.38-4.35,6.38h-63.81c-2.39,0-4.34-2.85-4.34-6.38s1.95-6.38,4.34-6.38ZM1691.853,268.334c9.47-5.08,22.76-7.55,40.62-7.55,27.39,0,45.69,3.83,55.94,11.72,10.25,7.89,10.24,17.76,10.24,22.64l2.24,59.84h-16.81l-1-27.86c-.355-9.417-8.096-16.867-17.52-16.86h-56.97c-9.406-.018-17.144,7.402-17.52,16.8-.34,8.57-.71,17.86-1.11,27.92h-16.87l2.42-60.33c0-11.51,5.64-20.64,16.34-26.36v.04ZM1665.153,552.434h143.12l2.13,57.22h-147.55l2.3-57.22ZM1657.013,754.804l2.3-57.19h154.38l2.14,57.19h-158.82Z"/><rect class="cls-13" y="816.974" width="1920" height="263.121"/></g><g id="Elements"><path class="cls-7" d="M0,291.503h55.709v653.642H0V291.503Z"/><path class="cls-23" d="M0,258.477h44.125v169.549H0v-169.549Z"/><rect class="cls-7" x="149.833" y="460.053" width="44.125" height="114.514"/><path class="cls-28" d="M44.125,291.503v653.642h177.145V291.503H44.125ZM192.022,565.781h-117.097v-99.112h117.097v99.112Z"/><path class="cls-27" d="M44.125,428.026h177.145v-169.549H44.125v169.549Z"/><path class="cls-27" d="M169.36,590.942l14.648-5.454s6.753,18.96,11.22,31.946c-4.311.935-10.025,4.363-14.337,5.298-4.363-12.986-11.532-31.79-11.532-31.79Z"/><polygon class="cls-27" points="164.859 586.246 184.354 579.345 193.67 605.914 174.551 612.46 164.859 586.246"/><path class="cls-2" d="M193.958,664.871c1.649,9.152.885,19.042.646,28.258-.755,28.997-2.857,58.046-5.352,86.944-2.743,31.776-6.014,63.465-11.555,94.893-1.296,7.349-2.832,15.364-7.819,21.217-2.915,3.421-7.138,5.909-11.633,5.988-8.614.151-11.605-8.155-13.234-15.245-12.801-55.707-8.544-114.095-8.343-170.775.026-7.295.082-14.59.168-21.885"/><rect class="cls-7" x="117.921" y="604.553" width="35.439" height="103.681"/><polygon id="Path-3" class="cls-27" points="202.743 673.576 185.427 673.955 185.174 622.892 200.467 629.085 202.743 673.576"/><path class="cls-27" d="M200.527,628.809l-2.296,9.373-10.39.731-4.3-3.871-8.476,3.803c-1.271.57-2.085,1.836-2.078,3.228l.075,14.614c.008,1.456.903,2.772,2.27,3.273.95.348,2.05.656,3.286.844,4.265.65,7.693-.498,9.314-1.168l.132,8.307-16.521-1.894c-2.427-.278-4.277-2.306-4.332-4.748l-.499-22.237-.136-3.042c-.112-2.492.912-4.9,2.783-6.55l8.884-7.832,19.012-5.766,3.272,12.934Z"/><rect class="cls-27" x="1331.294" y="432.14" width="82.516" height="25.774"/><path class="cls-15" d="M1488.792,532.758c-.88,2.48-1.77,4.99-2.66,7.5-3.38,9.39-2.6,22.21-4.52,27.45-3.96-4.12-9.49-11.65-15.58-20.89-14.57-22.13-32.36-54.06-39.39-72.32l20.75-8.54c2.42,3.54,26.22,42.45,36.69,59.32,2.44,3.93,4.16,6.66,4.71,7.48Z"/><g id="Lisa_Arm_L_long"><path class="cls-10" d="M1558.748,528.523l-33.946,8.376,12.276,41.672c2.026,6.879,10.933,8.671,15.462,3.111l11.952-14.673-5.744-38.486Z"/><path class="cls-31" d="M1558.748,528.523l-33.946,8.376s-5.186-19.733-5.282-27.513c-.236-15.369-3.065-30.025,10.635-32.425,13.7-2.399,18.072,4.084,20.76,17.005l7.833,34.556h0Z"/><path class="cls-23" d="M1570.461,684.327c6.985-32.3,12.475-96.726,12.475-96.726,0-.352-53.636,0-53.636,0l-5.915,12.499c-.406,2.736-3.023,29.044-2.987,31.804l-2.725,68.818,2.043,51.127.424,10.635c2.772,10.498,12.332,18.235,23.696,18.235,12.822,0,23.356-9.858,24.419-22.406-.329-2.808-.603-5.724-.825-8.741-1.374-18.88-.592-41.543,3.029-65.245h0Z"/><path class="cls-23" d="M1575.03,898.082l2.605-6.321c0-3.244-2.497-15.511-2.486-18.791,0-6.793,0-13.037-.43-16.126-2.91-22.77,5.473-47.745-2.91-78.581-1.559-5.76-2.802-12.487-3.669-19.974-.329-2.796-.598-5.7-.818-8.699-2.886-10.318-12.356-17.889-23.595-17.889-12.051,0-22.065,8.693-24.12,20.147l.424,10.635.257,6.459,10.755,60.065,2.826,47.327,2.414,9.333-3.418,10.319v10.534s.118,24.796.118,24.796l19.186,7.053s23.255-.573,24.585-5.573c1.329-5-.692-11.202-.886-13.221-.194-2.019,1.498-14.686,1.498-14.686l-2.336-6.805h0Z"/><polygon class="cls-10" points="1549.33 945.841 1529.472 940.612 1523.86 920.891 1549.698 922.764 1549.33 945.841"/><path class="cls-10" d="M1531.23,972.027c5.422-1.838,11.327-7.13,18.078-8.668,5.448-1.238,11.744,1.799,16.227.782,3.272-.743,9.867-.978,12.017-4.054,1.668-2.359,2.58-15.262.743-20.346-1.837-5.084.971-11.407-1.63-9.363-1.245.978-20.645,9.517-24.987,3.726-4.342-5.791-6.358,1.746-7.974,1.595-8.298-.775-9.248-1.692-15.655-3.635-2.359,5.5-9.645,13.295-14.611,16.123-4.64,2.646-9.971,3.754-14.337,6.973-4.366,3.219-7.299,9.841-4.366,14.637,2.607,4.275,29.353,4.653,36.495,2.229h0Z"/><path class="cls-16" d="M1495.099,959.919c-2.255,1.955-2.255,8.629.808,12.083,1.134,1.225,5.044,2.633,10.258,3.715l3.389.613,1.303.209,3.128.391c.587.078,1.186.196,1.786.196l3.128.182,1.303.065,3.493.091h1.29s3.493-.104,3.493-.104c.56-.026,1.108-.104,1.655-.104h.078l3.415-.469c.573-.104,1.108-.235,1.616-.378l3.089-1.043c.508-.208.991-.443,1.447-.678l2.437-1.408c4.184-2.724,6.882-5.787,12.865-5.787,1.745,0,3.488.132,5.214.391l3.193.417c.651.039,1.304.039,1.955,0l3.258-.495c.613-.13,1.264-.287,1.916-.456l3.258-1.147c1.361-.466,2.587-1.258,3.571-2.307,1.577-2.059,4.184-10.049,1.577-11.574-2.646,6.569-13.738,9.515-26.394,9.437-8.381-.039-17.322,8.277-24.178,8.85-7.648.508-15.322-.466-22.601-2.868-.326-6.713-8.498-9.789-10.753-7.82h0Z"/><path class="cls-7" d="M1523.47,939.111c.36-.437.712-.876,1.049-1.316l17.979,6.777-1.607,1.473-17.421-6.935h0Z"/><path class="cls-7" d="M1521.524,941.338l15.255,8.488-1.515,1.396-15.053-8.518c.443-.445.882-.9,1.313-1.366Z"/><path class="cls-7" d="M1515.733,946.651c.506-.38,1.021-.789,1.543-1.23l14.741,8.794-1.513,1.383-14.77-8.947h0Z"/><path class="cls-7" d="M1512.365,948.765l15.246,9.501-1.298,1.193-15.725-9.842c.599-.269,1.192-.551,1.777-.852Z"/><path class="cls-27" d="M1675.915,909.01l-5.814-8.568,2.109-11.077-2.133-14.34s-13.402-59.951-14.196-63.966l-5.58-28.141-11.113-17.482-2.671-13.049-.55-2.695c-1.273-1.858-2.599-5.049-3.872-8.938-4.989-7.463-13.497-12.38-23.152-12.38-15.373,0-27.843,12.463-27.843,27.837,0,1.416.108,2.814.311,4.176,1.273,4.481,2.593,7.833,3.722,10.259.006.006.012.012.012.024,1.781,3.8,3.101,5.312,3.101,5.312l4.81,18.898,15.29,21.665,6.268,25.029,19.317,36.924-1.093,9.124,4.027,6.226-3.311,27.045,11.636,15.921,12.716,3.709,13.643-2.726,5.298-9.195-.931-19.589h0Z"/><path class="cls-27" d="M1636.92,756.21c0-1.291-.09-2.563-.257-3.806l-.556-2.713c-1.273-1.858-2.599-5.049-3.872-8.938-3.191-9.757-6.011-23.917-6.56-32.485-4.38-66.978-10.163-84.717-42.463-119.61l-15.642,1.434-35.592,3.31,40.497,145.822c1.655,6.22,6.829,12.213,8.09,17.405.323,1.332.657,2.581.986,3.752,1.291,4.529,2.617,7.905,3.764,10.336,4.893,7.994,13.706,13.33,23.768,13.33,15.373,0,27.837-12.464,27.837-27.837h0Z"/><path class="cls-23" d="M1592.242,736.929c-6.214-24.678-3.658-58.285-3.658-58.285l36.569-1.428c4.624,11.344,13.5,39.958,3.039,60.142l-35.949-.429h0Z"/><polygon class="cls-15" points="1588.58 678.657 1624.939 676.861 1631.773 692.016 1594.438 694.315 1588.58 678.657"/><polygon class="cls-10" points="1649.899 942.944 1630.041 937.715 1624.429 917.994 1650.267 919.867 1649.899 942.944"/><path class="cls-10" d="M1631.798,969.13c5.422-1.838,11.327-7.13,18.078-8.668,5.448-1.238,11.744,1.799,16.227.782,3.272-.743,9.867-.978,12.017-4.054,1.668-2.359,2.58-15.263.743-20.346-1.837-5.084.971-11.407-1.63-9.363-1.245.978-20.645,9.517-24.987,3.726-4.342-5.791-6.358,1.746-7.974,1.595-8.298-.775-9.248-1.692-15.655-3.635-2.359,5.5-9.645,13.295-14.611,16.123-4.64,2.646-9.971,3.754-14.337,6.973-4.366,3.219-7.299,9.841-4.366,14.637,2.607,4.275,29.353,4.653,36.495,2.229h0Z"/><path class="cls-16" d="M1595.668,957.022c-2.255,1.955-2.255,8.629.808,12.083,1.134,1.225,5.044,2.633,10.258,3.715l3.389.613,1.303.209,3.128.391c.587.078,1.186.196,1.786.196l3.128.183,1.303.065,3.493.091h1.29l3.493-.104c.56-.026,1.108-.104,1.655-.104h.078l3.415-.469c.574-.104,1.108-.235,1.616-.378l3.089-1.043c.508-.209.991-.443,1.447-.678l2.437-1.408c4.184-2.724,6.882-5.787,12.865-5.787,1.745,0,3.488.132,5.214.391l3.193.417c.651.039,1.304.039,1.955,0l3.259-.495c.613-.13,1.264-.287,1.916-.456l3.259-1.147c1.361-.466,2.587-1.258,3.571-2.307,1.577-2.059,4.184-10.049,1.577-11.574-2.646,6.569-13.738,9.515-26.394,9.437-8.381-.039-17.322,8.277-24.178,8.85-7.648.508-15.322-.466-22.601-2.868-.326-6.713-8.498-9.789-10.753-7.82h0Z"/><path class="cls-7" d="M1625.087,934.898l17.979,6.777-1.607,1.473-17.421-6.935c.36-.437.712-.876,1.049-1.316Z"/><path class="cls-7" d="M1620.779,939.807c.443-.445.882-.9,1.313-1.366l15.255,8.488-1.515,1.396-15.053-8.518h0Z"/><path class="cls-7" d="M1616.302,943.754c.506-.38,1.021-.789,1.543-1.23l14.741,8.794-1.513,1.383-14.77-8.947h0Z"/><path class="cls-7" d="M1611.156,946.72c.599-.269,1.192-.551,1.777-.852l15.246,9.501-1.298,1.193-15.725-9.842h0Z"/><path class="cls-8" d="M1551.471,440.121c-.977-.252-1.894-.695-2.698-1.303.862.508,1.764.944,2.698,1.303Z"/><path class="cls-3" d="M1591.473,428.39c3.224,1.018,5.777,3.502,6.882,6.698,1.93,5.578-1.028,11.665-6.606,13.595-5.578,1.93-11.665-1.028-13.595-6.606-1.93-5.578,1.028-11.665,6.606-13.595,3.219-4.158,6.4-9.828,3.793-13.282-.285-.4-.649-.737-1.069-.991-3.05-1.851-7.429,2.894-10.18,6.517l-4.34-11.274-4.953-.469-5.996-13.608-1.421,12.917-6.843-.652-6.022-7.925-.3,7.286-6.282-.6c-.314,6.689.057,13.393,1.108,20.007,1.303,7.39,4.275,10.818,6.517,12.382-15.211-8.759-13.907-38.503-7.143-46.714.212-.346.379-.719.495-1.108.741-1.643,1.682-3.189,2.802-4.601.494-.607,1.079-1.135,1.734-1.564,3.694-3.781,8.751-5.923,14.038-5.944,19.108-.73,28.167,6.804,31.894,19.525l.235.808c.669,2.46,1.162,4.964,1.473,7.495.065.495,2.255,9.697-2.828,21.702h0Z"/><path class="cls-15" d="M1550.598,472.067s1.955-8.876,3.936-18.078h0c3.542-1.729,6.882-3.845,9.958-6.308-2.872.377-5.783.333-8.642-.13-3.204-.491-6.338-1.366-9.332-2.607-1.891-6.051-3.312-12.239-4.249-18.508-1.051-6.614-1.422-13.318-1.108-20.007l6.282.6.287-7.312,6.022,7.899,6.843.652,1.421-12.917,5.996,13.634,4.849.43,4.34,11.274c2.75-3.584,7.13-8.329,10.18-6.517.42.254.784.591,1.069.991,3.676,4.875-4.171,14.077-7.403,17.518l.899,10.271.886,10.688,1.825,21.676-34.058-3.245h0Z"/><path class="cls-10" d="M1564.492,447.668c-3.077,2.464-6.416,4.579-9.958,6.308h0c.196-1.004.404-1.994.6-2.972.235-1.186.482-2.346.717-3.467,2.859.463,5.77.507,8.642.13h0Z"/><polygon class="cls-3" points="1588.671 402.583 1571.818 406.819 1577.24 420.726 1582.375 414.887 1588.879 411.511 1588.671 402.583"/><path class="cls-14" d="M1561.582,480.768s-3.36,6.13-10.09,15.75c-6.36,9.1-15.74,21.34-28.16,34.49-3.63,3.85-7.53,7.79-11.69,11.74-8.83,8.4-18.84,16.9-30.03,24.96-3.96-4.12-9.49-11.65-15.58-20.89l18.05-21.54,37.21-44.39c3.58-4.39,8.59-7.07,13.9-7.79,4.15-.57,8.49.06,12.46,2l13.93,5.67Z"/><path class="cls-5" d="M1606.384,472.875l-29.991,124.136,15.393.209-68.403,2.881s-7.117-36.052-12.578-61.26c-3.545-16.41-.86-24.7,5.344-32.585,14.064-21.011,19.721-34.723,19.721-34.723l13.555-5.344,3.063-8.055,32.872.43,3.193,8.133,17.831,6.178h0Z"/><path class="cls-22" d="M1620.369,500.273c-.026.156-.039.3-.052.456-.052.417-.169.86-.169,1.303l-28.219,95.201h-.156s-15.753.651-15.753.651l30.338-124.996h.104s.469.182.469.182l.678.274.482.209.626.274.469.235.573.3.456.248.547.313.43.274.508.339.417.287.482.352.391.313.456.378.352.313c.156.13.313.287.43.404s.195.209.339.339.274.274.404.417l.326.352.378.443.287.352c.13.156.248.326.365.482l.261.352.352.534.222.326c.13.222.248.443.378.652l.156.261c.169.313.326.626.482.938l.078.169c.13.261.3.665.352.782s.052.143.143.352c.091.209.222.495.261.639.039.143.052.222.13.417.078.196.156.443.209.6.052.156.065.235.13.443s.117.443.169.6c.052.156.091.287.13.482s.052.443.143.6c.091.156.039.274.091.482.052.209.13.404.13.613l.143.508c.091.196.091.404.091.613l.078.521v8.563c-.091.287-.091.573-.091.86h0Z"/><polygon class="cls-7" points="1563.175 677.933 1561.049 674.857 1565.4 676.188 1566.816 676.621 1564.698 677.384 1563.175 677.933"/><polygon class="cls-7" points="1567.899 672.111 1569.629 670.449 1569.895 670.475 1572.448 670.728 1579.909 673.744 1581.219 674.272 1579.056 675.813 1575.751 675.403 1575.488 675.37 1568.247 672.261 1567.899 672.111"/><polygon class="cls-7" points="1581.633 669.481 1582.842 668.84 1585.51 668.329 1585.509 668.33 1586.435 668.701 1588.038 670.832 1590.012 673.455 1589.533 673.295 1585.929 671.555 1585.348 671.274 1583.308 670.29 1581.633 669.481"/><polygon class="cls-26" points="1572.448 670.728 1576.546 669.124 1581.633 669.481 1583.308 670.29 1585.348 671.274 1585.929 671.555 1589.533 673.295 1588.636 674.21 1588.419 674.43 1582.403 674.299 1581.219 674.272 1579.909 673.744 1572.448 670.728"/><polygon class="cls-26" points="1561.922 671.924 1565.304 672.03 1567.899 672.111 1568.247 672.261 1575.488 675.37 1575.351 675.571 1574.689 676.547 1573.078 676.562 1566.816 676.621 1565.4 676.188 1561.049 674.857 1561.922 671.924"/><rect class="cls-7" x="1561.505" y="506.677" width="24.637" height="5.563"/><path class="cls-10" d="M1571.86,687.295l11.965-16.996,21.167,5.135s-12.695,24.647-33.133,11.861h0Z"/><path class="cls-15" d="M1607.881,633.412c8.398,3.05-.074,24.83-.074,24.83l-2.815,17.192-21.167-5.135,13.634-27.71s2.025-12.226,10.423-9.176h0Z"/><polygon class="cls-15" points="1594.448 649.757 1588.295 665.384 1572.55 671.354 1571.377 666.219 1594.448 649.757"/><path class="cls-10" d="M1633.931,529.159l-33.946,8.376,12.276,41.672c2.026,6.879,10.933,8.671,15.462,3.111l11.952-14.673-5.744-38.486Z"/><path class="cls-35" d="M1599.986,537.535s-5.186-19.733-5.282-27.513c-.236-15.369,3.304-26.925,11.607-36.72h0c10.458,1.083,17.1,8.38,19.788,21.301l7.833,34.556-33.946,8.376Z"/><path class="cls-15" d="M1639.676,567.616s-5.757-3.078-15.056-1.668c-9.299,1.411-12.922,12.747-12.922,12.747-6.215,22.697-6.425,26.277-11.568,45.496-2.654,9.903-6.261,23.892-6.525,24.891l-.006.006c-.023.092-.035.138-.035.138l-.258.459c-.448,1.017-.695,2.136-.695,3.319,0,4.548,3.687,8.235,8.235,8.235,3.652,0,6.748-2.377,7.827-5.668.098-.695.19-1.16.287-1.332.011-.023.029-.046.04-.069,13.168-23.166,27.314-58.341,30.676-86.554h0Z"/></g><polygon class="cls-10" points="1450.752 470.386 1431.15 485.163 1426.639 474.494 1450.752 470.386"/><path class="cls-15" d="M1439.49,452.194l17.16,11.673c-1.519,3.372-5.315,6.857-9.436,8.281-1.374.497-2.833.718-4.293.65l-5.737.595-10.546,1.1,10.031-24.218,2.82,1.919h0Z"/><rect class="cls-10" x="817.121" y="112.877" width="51.696" height="830.282"/><rect class="cls-28" x="800.035" y="112.877" width="17.087" height="830.282"/><rect class="cls-26" x="718.535" y="494.965" width="283.94" height="17.087"/><g id="Ebene_2-2"><g id="Ebene_2-2-2"><path class="cls-16" d="M1196.189,433.921c0-26.276-7.34-50.224-19.397-68.309v-33.723h-56.004c-41.643,0-75.413,45.685-75.413,102.032s33.77,102.032,75.413,102.032h56.004v-33.735c12.057-18.085,19.397-42.021,19.397-68.297Z"/><ellipse class="cls-28" cx="1178.14" cy="437.349" rx="55.65" ry="75.307"/><path class="cls-3" d="M1178.14,362.043c-2.675.003-5.342.264-7.967.78,26.95,5.236,47.683,36.643,47.683,74.526s-20.733,69.326-47.683,74.526c2.625.51,5.293.772,7.967.78,30.733,0,55.661-33.723,55.661-75.307s-24.917-75.307-55.661-75.307h0Z"/><path class="cls-3" d="M1241.141,446.392l-46.784-21.465c-3.591-1.537-6.403-4.468-7.79-8.12l-24.078-68.664-35.118,8.771,24.491,69.857c1.42,4.078.856,8.585-1.525,12.187l-23.073,35.863,16.548,37.825,34.279-52.115c2.151-3.333,7.092-4.574,11.052-2.754l48.191,22.104,3.806-33.487h0Z"/><path class="cls-23" d="M1175.232,331.889c-41.654,0-75.413,45.685-75.413,102.032s33.759,102.032,75.413,102.032,75.437-45.685,75.437-102.032-33.794-102.032-75.437-102.032ZM1178.14,512.656c-30.733,0-55.65-33.723-55.65-75.307s24.917-75.307,55.65-75.307,55.661,33.711,55.661,75.307-24.917,75.307-55.661,75.307Z"/><path class="cls-16" d="M723.913,433.921c0-26.276-7.34-50.224-19.397-68.309v-33.723h-56.004c-41.643,0-75.401,45.685-75.401,102.032s33.759,102.032,75.401,102.032h56.063v-33.735c11.998-18.085,19.338-42.021,19.338-68.297Z"/><ellipse class="cls-28" cx="705.875" cy="437.349" rx="55.65" ry="75.307"/><path class="cls-3" d="M705.875,362.043c-2.678.003-5.35.264-7.979.78,26.962,5.236,47.683,36.643,47.683,74.526s-20.721,69.29-47.683,74.467c2.629.51,5.301.771,7.979.78,30.733,0,55.65-33.723,55.65-75.307s-24.917-75.247-55.65-75.247h0Z"/><path class="cls-3" d="M768.865,446.392l-46.784-21.465c-3.588-1.537-6.397-4.469-7.778-8.12l-24.09-68.711-35.106,8.771,24.48,69.857c1.429,4.075.87,8.585-1.513,12.187l-23.085,35.863,16.548,37.825,34.279-52.115c2.151-3.333,7.092-4.574,11.052-2.754l48.179,22.104,3.818-33.439h0Z"/><path class="cls-23" d="M702.955,331.889c-41.643,0-75.401,45.685-75.401,102.032s33.759,102.032,75.401,102.032,75.401-45.685,75.401-102.032-33.759-102.032-75.401-102.032h0ZM705.875,512.656c-30.733,0-55.661-33.723-55.661-75.307s24.917-75.307,55.661-75.307,55.65,33.711,55.65,75.307-24.917,75.307-55.65,75.307Z"/><path class="cls-7" d="M1053.117,263.899l-369.429,3.357,77.789-62.588c57.139-47.281,125.294-72.694,195.246-72.694l257.681.496-161.287,131.429h0Z"/><path class="cls-7" d="M1441.719,192.151c-59.243-32.009-141.405-54.042-212.433-59.184-73.9-5.355-151.192,33.345-203.603,90.72l-39.858,43.652h500.149l-42.364-53.806-1.891-21.383h0Z"/><path class="cls-7" d="M1438.585,441.344c0,18.515-11.095,33.534-24.775,33.534-4.234,0-8.227-1.434-11.713-3.967-7.78-5.668-13.07-16.78-13.07-29.567s5.29-23.899,13.07-29.558c3.486-2.533,7.48-3.967,11.713-3.967,13.68,0,24.775,15.011,24.775,33.526Z"/><path class="cls-7" d="M1507.886,401.395v35.355c.009,14.599-8.21,27.866-21.074,34.419-.842.438-1.996.768-2.885,1.099-3.791,1.41-10.855,4.062-10.855,4.062l-8.845,3.306-1.314.489c.713-1.46,1.383-2.946,2.001-4.44,5.015-11.868,7.557-24.646,7.454-37.57,0-14.212-2.911-27.506-7.969-38.85l-.009-.009c-9.738-21.838-27.446-36.437-47.669-36.437-5.067,0-9.97.91-14.624,2.636-10.039,3.693-18.944,11.078-25.866,21.014-9.403,13.482-15.166,31.654-15.166,51.645,0,10.022,1.451,19.58,4.079,28.313,1.383,4.611,3.091,8.991,5.101,13.096,1.219,2.516,2.559,4.938,4.002,7.239l-6.724,1.503-4.01.902h-.009l-3.821.859-8.313,1.872-11.129,2.499-.859.189c-1.322.292-4.01.67-4.01.67h-4.244l-486.14-.473-198.969.73c-1.005,0-2.061,0-3.169-.009-13.551-.009-34.668-.275-56.437-3.718h-.009c-40.885-6.475-84.089-24.165-83.952-72.582l.258-91.62v-.318l.043-16.617c0-4.182,1.082-8.107,3.109-11.765.009-.026.026-.043.043-.069.747-1.357,1.632-2.688,2.645-3.976.034-.034.06-.069.086-.103,1.76-2.241,3.89-4.371,6.355-6.398.077-.069.163-.137.249-.198,30.219-24.526,109.182-33.689,168.453-31.988l1.52-.026c0-.009.009,0,.009,0l12.538-.189,302.693-4.62,2.362-.043,28.038-.421,39.013-.601,6.81-.103,44.303-.678,335.36-5.118h.009l.979-.017c4.036-.077,8.021.489,11.834,1.649h.009c4.113,1.245,8.012,3.186,11.524,5.762,12.074,8.768,20.988,21.211,25.411,35.458,1.091,3.538,1.64,7.213,1.632,10.915l.155,103.273Z"/><polygon class="cls-3" points="1025.683 256.955 1219.841 256.955 1219.841 495.191 1025.683 494.917 1025.683 256.955"/><path class="cls-3" d="M1402.096,256.867v108.582c-10.039,3.692-18.944,11.077-25.866,21.012-9.403,13.482-15.166,31.651-15.166,51.642,0,10.021,1.451,19.578,4.079,28.311,1.383,4.611,3.091,8.99,5.101,13.095,1.219,2.516,2.559,4.937,4.002,7.239h.009c1.898,3.048,3.985,5.891,6.226,8.492l-152.566-.11v-238.263h174.18Z"/><path class="cls-23" d="M1219.818,150.13c-66.997-1.182-134.041,36.276-177.717,87.529l-17.021,19.964h375.765l56.453-12.175c-44.397-51.122-109.302-90.791-237.48-95.318h0Z"/><path class="cls-23" d="M998.331,257.623l-314.642-.118c45.709-41.513,104.739-81.796,171.913-107.552l279.323-1.69c-57.103,26.666-107.54,66.583-136.594,109.361h0Z"/><polygon class="cls-11" points="1077.798 263.474 1037.172 273.556 1037.089 262.965 1074.973 252.871 1077.798 263.474"/><path class="cls-11" d="M1116.734,264.691h-49.349l14.693-22.979c13.629-4.87,27.328-4.043,41.063,0l-6.407,22.979h0Z"/><polygon class="cls-15" points="1113.98 260.625 1069.524 260.625 1076.344 256.228 1080.375 250.531 1117.065 250.531 1113.98 260.625"/><polygon class="cls-15" points="1082.325 259.478 1039.252 270.814 1039.382 266.299 1081.58 254.81 1082.325 259.478"/><path class="cls-13" d="M1175.35,281.015h30.863c3.323,0,6.017,2.694,6.017,6.017h0c0,3.323-2.694,6.017-6.017,6.017h-30.863c-3.323,0-6.017-2.694-6.017-6.017h0c0-3.323,2.694-6.017,6.017-6.017Z"/><path class="cls-13" d="M1357.925,281.015h30.863c3.323,0,6.017,2.694,6.017,6.017h0c0,3.323-2.694,6.017-6.017,6.017h-30.863c-3.323,0-6.017-2.694-6.017-6.017h0c0-3.323,2.694-6.017,6.017-6.017Z"/><path class="cls-27" d="M529.364,330.211l-26.655-2.624c-.106-14.693-1.017-23.038,3.191-28.77l23.463,10.26v21.135Z"/><polygon class="cls-11" points="767.706 295.093 770.508 309.904 998.331 257.623 954.738 257.611 767.706 295.093"/><path class="cls-11" d="M529.364,309.076l8.546-12.458-21.903-9.042c-4.137,2.964-7.571,6.802-10.059,11.241l23.416,10.26Z"/><path class="cls-11" d="M513.915,293.994s17.269,10.378,15.449,15.083h247.314v-15.083h-262.763,0Z"/><path class="cls-23" d="M564.186,318.296h162.185c4.504,0,8.156,3.649,8.156,8.15h0c0,4.501-3.652,8.15-8.156,8.15h-162.185c-4.504,0-8.156-3.649-8.156-8.15h0c0-4.501,3.652-8.15,8.156-8.15Z"/><path class="cls-23" d="M564.186,390.045h162.185c4.504,0,8.156,3.649,8.156,8.15h0c0,4.501-3.652,8.15-8.156,8.15h-162.185c-4.504,0-8.156-3.649-8.156-8.15h0c0-4.501,3.652-8.15,8.156-8.15Z"/><path class="cls-28" d="M907.031,495.268c-12.269-13.818-20.094-34.633-20.094-57.919,0-41.595,24.917-75.307,55.661-75.307s55.65,33.711,55.65,75.307c0,23.286-7.781,43.746-20.062,57.564l21.686.051c9.515-17.08,15.197-38.017,15.197-61.043,0-56.347-33.759-102.032-75.401-102.032s-75.401,45.685-75.401,102.032c0,23.026,5.638,44.267,15.154,61.347h27.612,0Z"/><path class="cls-28" d="M1489.217,434.706c.026,12.701-1.752,25.35-5.29,37.562l-10.855,4.062-8.845,3.306-1.314.489c.713-1.46,1.383-2.946,2.001-4.44,5.015-11.868,7.557-24.646,7.454-37.57,0-14.212-2.911-27.506-7.969-38.85l-.009-.009c-9.738-21.838-27.446-36.437-47.669-36.437-5.067,0-9.97.91-14.624,2.636-10.039,3.693-18.944,11.078-25.866,21.014-9.403,13.482-15.166,31.654-15.166,51.645,0,10.022,1.451,19.58,4.079,28.313,1.383,4.611,3.091,8.991,5.101,13.096,1.219,2.516,2.559,4.938,4.002,7.239h.009c1.898,3.049,6.226,8.477,6.226,8.477h-27.318s-1.227-2.2-1.794-3.342c-8.184-16.308-12.967-35.99-12.967-57.193,0-12.409,1.64-24.294,4.637-35.295,9.3-34.187,31.748-59.76,59.056-65.514,3.813-.807,7.72-1.228,11.705-1.228,16.643,0,32.023,7.291,44.492,19.648,18.746,18.558,30.924,48.554,30.924,82.389Z"/><path class="cls-16" d="M950.849,433.921c0-26.276-7.352-50.224-19.409-68.309v-33.723h-56.004c-41.643,0-75.401,45.685-75.401,102.032s33.759,102.032,75.401,102.032h56.004v-33.735c12.057-18.085,19.409-42.021,19.409-68.297Z"/><ellipse class="cls-28" cx="932.799" cy="437.349" rx="55.65" ry="75.307"/><path class="cls-3" d="M932.799,362.043c-2.678.003-5.35.264-7.979.78,26.962,5.236,47.683,36.643,47.683,74.526s-20.721,69.29-47.683,74.467c2.629.51,5.301.771,7.979.78,30.733,0,55.65-33.723,55.65-75.307s-24.917-75.247-55.65-75.247h0Z"/><path class="cls-3" d="M995.789,446.392l-46.784-21.465c-3.588-1.537-6.397-4.469-7.778-8.12l-24.09-68.711-35.106,8.771,24.48,69.857c1.429,4.075.87,8.585-1.513,12.187l-23.12,35.91,16.548,37.825,34.279-52.115c2.151-3.333,7.092-4.574,11.052-2.754l48.179,22.104,3.853-33.487h0Z"/><path class="cls-23" d="M929.88,331.889c-41.643,0-75.401,45.685-75.401,102.032s33.759,102.032,75.401,102.032,75.401-45.685,75.401-102.032-33.759-102.032-75.401-102.032h0ZM932.799,512.656c-30.733,0-55.661-33.723-55.661-75.307s24.917-75.307,55.661-75.307,55.65,33.711,55.65,75.307-24.917,75.307-55.65,75.307Z"/><path class="cls-7" d="M766.04,494.724l78.947.059c-10.898-82.907,12.411-161.701,94.077-165.932l-113.557-8.487-59.468,174.36h0Z"/><path class="cls-28" d="M600.427,489.772l221.795-.106-27.813-41.146-277.42-.106c6.229,15.709,41.193,33.64,83.439,41.359h0Z"/><polygon class="cls-27" points="770.886 331.925 851.937 323.591 851.535 291.31 770.614 310.707 770.886 331.925"/><path class="cls-28" d="M1438.585,441.344c0,18.515-11.095,33.534-24.775,33.534-4.234,0-8.227-1.434-11.713-3.967-7.78-5.668-13.07-16.78-13.07-29.567s5.29-23.899,13.07-29.558c3.486-2.533,7.48-3.967,11.713-3.967,13.68,0,24.775,15.011,24.775,33.526Z"/><polygon class="cls-10" points="1309.284 495.307 1009.911 494.901 1025.683 471.665 1292.536 471.665 1309.284 495.307"/></g></g><polygon class="cls-13" points="1331.519 494.964 1331.519 495.514 1331.519 512.053 1002.475 512.053 1002.475 494.964 1331.519 494.964"/><rect class="cls-10" x="1205.743" y="112.877" width="51.696" height="830.282"/><rect class="cls-28" x="1188.656" y="112.877" width="17.087" height="830.282"/><path class="cls-28" d="M1438.585,441.344c0,18.515-11.095,33.534-24.775,33.534-4.234,0-8.227-1.434-11.713-3.967-7.78-5.668-13.07-16.78-13.07-29.567s5.29-23.899,13.07-29.558c3.486-2.533,7.48-3.967,11.713-3.967,13.68,0,24.775,15.011,24.775,33.526Z"/><path class="cls-7" d="M1449.568,441.344c0,18.515-11.095,33.534-24.775,33.534-4.234,0-8.227-1.434-11.713-3.967-7.78-5.668-13.07-16.78-13.07-29.567s5.29-23.899,13.07-29.558c3.486-2.533,7.48-3.967,11.713-3.967,13.68,0,24.775,15.011,24.775,33.526Z"/><path class="cls-27" d="M1464.914,475.685c.567-3.787.859-7.66.859-11.602,0-43.298-35.106-78.404-78.404-78.404-3.778,0-7.505.266-11.138.79,6.922-9.936,15.827-17.321,25.866-21.014,4.654-1.726,9.558-2.636,14.624-2.636,20.224,0,37.931,14.599,47.669,36.437l.009.009c5.058,11.344,7.969,24.638,7.969,38.85.103,12.924-2.439,25.702-7.454,37.57Z"/><path class="cls-4" d="M487.316,640.576c9.104,24.939,44.708,55.422,64.736,74.631.018.02.042.037.061.057.149.143.379.58.683,1.244,2.055,2.964,5.852,4.417,9.497,3.331,4.54-1.352,7.124-6.127,5.772-10.667-.352-1.181-.931-2.225-1.68-3.107l-.394-.382s-.025-.042-.075-.127l-.007-.004c-.561-.919-4.025-6.558-9.058-14.744-9.761-15.889-25.396-41.26-37.05-59.986l-32.483,9.753Z"/><path class="cls-7" d="M368.076,449.408c3.66,1.021,7.468,1.403,11.258,1.128.324,3.113.661,6.381.96,9.624h0c-4.552-2.999-8.664-6.618-12.218-10.752Z"/><path class="cls-33" d="M380.346,459.486c1.167,9.559,3.191,21.647,3.191,21.647l-39.052-3.178,8.08-42.45s.311-.739.791-1.933c-1.971-2.386-8.871-7.652-7.886-13.787.415-2.594-.415-4.28,1.18-5.94,3.593-3.748,8.703-8.106,11.673-3.567-3.67-9.974-.078.389,0,0,.69-3.579,1.068-7.211,1.128-10.856,0,0,11.764,0,24.863-.726s11.66,10.921,15.888,9.468c-.232,5.376-.874,10.726-1.92,16.005-.402,2.036-.895,4.137-1.492,6.251-1.722,6.583-3.964,13.019-6.705,19.247-3.463,1.013-7.032,1.622-10.635,1.816-3.487.222-6.987-.097-10.376-.947,3.332,3.483,7.124,6.493,11.271,8.949Z"/><path class="cls-21" d="M345.496,419.694c5.188-9.196,12.218,6.589,14.267,10.583l-1.44,7.419c-.921,3.8-2.01,8.417.065,11.673,3.126,4.864,12.879,4.397,14.591,6.381,2.555,2.957.519,4.371,2.931,4.371,6.174.156,14.85-1.764,19.144-8.807,5.123-8.404.934-18.08.934-18.08,0,0,.285-2.257-11.154-1.725-6.561.299-13.036,1.611-19.195,3.891-3.424.389-4.604-1.232-4.604-1.232l-3.333-19.87c1.053-.614,2.039-1.336,2.944-2.153,2.27-3.229,10.065,1.077,6.861-10.726,0,0,7.107,5.966,14.669,4.488,7.561-1.479,9.079-3.411,11.673-1.855,1.881,1.115,4.384,4.423,5.681,6.174.284.456.333,1.02.13,1.517,0,0,3.087-5.668,2.763-10.454-.019-.276-.019-.554,0-.83.311-4.799-4.76-14.345-19.351-16.264-6.757-.895-14.656-4.488-22.529,1.051-7.873,5.538-8.249,10.272-8.249,10.272,0,0-8.002,4.721-8.962,10.908-.405,4.534.34,9.098,2.166,13.268ZM374.717,436.529s16.147,2.244,20.492-1.479v.7c-6.978,13.657-21.478,6.485-21.478,2.594q0-.506.986-1.816Z"/><path class="cls-33" d="M389.191,424.195l5.46,7.497c.412.433.608,1.028.532,1.621-.067,1.271-1.101,2.277-2.373,2.309-1.868.246-14.422-3.463-14.422-3.463l5.849-2.892,4.954-5.071Z"/><polygon class="cls-4" points="478.135 669.994 508.254 680.703 508.314 686.72 493.974 686.511 478.135 669.994"/><path class="cls-4" d="M469.531,667.683c3.118-.928,6.352,0,8.508,2.147l.007.004c.05.085.075.127.075.127l.395.382,17.74,18.279,21.209,17.097c-2.377,6.513-11.714,11.107-17.699,9.777-5.002-1.082-18.399-7.521-21.501-8.973s-11.149-20.991-13.318-25.712c-.315-.68-.554-1.127-.697-1.271-.026-.024-.044-.043-.07-.067-.163-.357-.307-.738-.423-1.128-1.35-4.534,1.234-9.309,5.774-10.661Z"/><path class="cls-32" d="M399.467,604.902l-5.824-6.832-5.745-92.828c.045-12.666,5.285-20.154,15.01-22.306,15.216-2.163,22.265,16.511,23.954,25.183,3.211,16.555,6.151,73.694,5.035,86.991l-32.431,9.792Z"/><path class="cls-21" d="M365.114,746.367c.993,2.942,4.288,16.327,7.739,31.392.329,1.447.664,2.913.993,4.384,3.361,10.406,13.127,17.93,24.646,17.93,13.313,0,24.275-10.041,25.728-22.959-.03-2.117-.06-4.228-.06-6.345,0-3.792.072-7.577.317-11.369.544-8.14-9.324-123.17-10.986-124.169-15.448-9.276-25.77,1.513-36.565,24.185-2.799,5.915-3.666,12.541-4.509,19.03l-7.535,58.131c-.419,3.307-.831,6.662.233,9.79Z"/><path class="cls-21" d="M372.875,774.182c0,1.214.084,2.41.251,3.576.329,1.447.664,2.913.993,4.384,3.941,17.445,7.817,35.985,8.48,42.641,1.788,17.936-.108,20.699.921,38.688.389,7.093-1.417,19.21-1.417,19.21l4.92,26.906s24.865,32.416,49.982,1.783c-2.745-4.372-5.448-18.079-5.448-18.079l.108-18.289s-5.604-9.898-5.604-11.441l-.455-25.202-.634-35.016-.431-23.605c-.018-.873-.03-1.752-.048-2.625-.03-2.117-.06-4.228-.06-6.345-1.663-12.691-12.517-22.481-25.669-22.481-14.299,0-25.89,11.59-25.89,25.896Z"/><polygon class="cls-12" points="416.295 901.322 444.341 899.289 438.249 920.695 416.695 926.372 416.295 901.322"/><path class="cls-12" d="M436.342,954.795c7.753,2.631,36.784,2.221,39.614-2.419,3.183-5.206,0-12.393-4.74-15.888-4.74-3.495-10.526-4.697-15.563-7.569-5.39-3.07-13.299-11.53-15.86-17.501-6.955,2.109-7.986,3.104-16.993,3.946-1.754.164-3.943-8.017-8.656-1.731-4.713,6.286-25.77-2.983-27.122-4.045-2.823-2.219.225,4.645-1.769,10.163-1.994,5.518-1.004,19.524.806,22.085,2.334,3.339,9.493,3.594,13.044,4.4,4.867,1.104,11.7-2.193,17.614-.849,7.329,1.669,13.737,7.413,19.623,9.408Z"/><path class="cls-17" d="M475.56,941.652c-2.448-2.136-11.318,1.203-11.672,8.489-7.901,2.607-16.231,3.664-24.532,3.113-7.442-.623-17.147-9.649-26.244-9.606-13.737.085-25.777-3.113-28.649-10.243-2.83,1.655,0,10.328,1.712,12.563,1.069,1.138,2.4,1.998,3.876,2.504l3.537,1.245c.707.184,1.415.354,2.08.495l3.537.538c.707.043,1.415.043,2.122,0l3.466-.453c1.873-.282,3.765-.423,5.659-.424,6.494,0,9.422,3.325,13.964,6.282l2.646,1.528c.495.255,1.019.509,1.57.736l3.353,1.132c.552.156,1.132.297,1.754.41l3.707.509h.085c.594,0,1.188.085,1.797.113l3.792.113h1.401s3.792-.099,3.792-.099l1.415-.071,3.395-.198c.651,0,1.302-.127,1.938-.212l3.395-.424,1.415-.226,3.678-.665c5.659-1.174,9.903-2.702,11.134-4.032,3.325-3.749,3.325-10.993.877-13.115Z"/><path class="cls-33" d="M444.764,919.066l-18.909,7.527-1.744-1.599,19.515-7.356c.366.478.747.954,1.138,1.428Z"/><path class="cls-33" d="M448.302,922.966l-16.34,9.246-1.645-1.515,16.559-9.213c.468.506.945.999,1.426,1.483Z"/><path class="cls-33" d="M453.163,927.251l-16.032,9.712-1.643-1.501,16-9.546c.566.478,1.125.922,1.674,1.335Z"/><path class="cls-33" d="M458.748,930.47l-17.069,10.683-1.409-1.294,16.549-10.313c.635.326,1.279.633,1.929.925Z"/><path class="cls-29" d="M286.405,902.693s1.486,23.048,1.737,26.134c31.555,30.151,46.538,5.569,49.454-6.099-1.453-6.226,6.097-34.694,6.097-34.694l3.331-10.077c.03-5.454,1.088-10.861,3.116-15.926,8.014-18.157,4.055-15.795,6.692-35.435,1.543-11.423,2.141-22.983,4.473-34.275.544-2.637,1.19-5.269,1.902-7.894.335-1.22.682-2.44,1.041-3.66.467-2.123.712-4.33.712-6.591,0-17.015-13.797-30.812-30.818-30.812-15.149,0-27.75,10.938-30.328,25.346v.012c-.156,2.404-.305,4.749-.443,7.039v.018c-1.28,21.022-1.782,36.864-2.081,39.561-.58,5.125-5.664,27.558-6.908,43.879-.975,12.679-.885,22.164-.885,22.164l-7.093,21.309Z"/><path class="cls-29" d="M303.448,775.791c.837,16.273,14.299,29.203,30.776,29.203,13.42,0,24.843-8.588,29.06-20.567.335-1.22.682-2.44,1.041-3.66,2.171-7.368,4.778-14.694,7.159-22.002,10.962-33.85,26.512-130.502,24.933-133.833-2.685-5.658-17.224,9.91-23.181,7.96-9.102-2.972-18.312-5.568-27.624-7.781-5.64-1.298-13.516,5.018-18.157,9.079-4.647,4.061-15.161,51.295-19.455,87.753-1.836,15.932-3.146,32.259-4.097,46.732-.161,2.428-.311,4.802-.455,7.117Z"/><path class="cls-21" d="M346.251,770.251l-41.97-.986c-11.375-24.007.182-57.067,6.057-70.037l42.619,3.191s1.569,39.286-6.705,67.832Z"/><polygon class="cls-12" points="345.732 719.98 302.153 716.802 310.337 699.202 353.916 702.367 345.732 719.98"/><polygon class="cls-12" points="317.618 919.147 345.663 917.115 339.572 938.521 318.017 944.197 317.618 919.147"/><path class="cls-12" d="M337.664,972.62c7.753,2.631,36.784,2.221,39.614-2.419,3.183-5.206,0-12.393-4.74-15.888-4.74-3.495-10.526-4.697-15.563-7.569-5.39-3.07-13.299-11.53-15.86-17.501-6.955,2.109-7.986,3.104-16.993,3.946-1.754.164-3.943-8.017-8.656-1.731-4.713,6.286-25.77-2.983-27.122-4.045-2.823-2.219.225,4.645-1.769,10.163-1.994,5.518-1.004,19.524.806,22.085,2.334,3.339,9.493,3.594,13.044,4.4,4.867,1.104,11.7-2.193,17.614-.849,7.329,1.669,13.737,7.413,19.623,9.408Z"/><path class="cls-17" d="M376.882,959.477c-2.448-2.136-11.318,1.203-11.672,8.489-7.901,2.607-16.231,3.664-24.532,3.113-7.442-.623-17.147-9.649-26.244-9.606-13.737.085-25.777-3.113-28.649-10.243-2.83,1.655,0,10.328,1.712,12.563,1.069,1.138,2.4,1.998,3.876,2.504l3.537,1.245c.707.184,1.415.354,2.08.495l3.537.538c.707.043,1.415.043,2.122,0l3.466-.453c1.873-.282,3.765-.423,5.659-.424,6.494,0,9.422,3.325,13.964,6.282l2.646,1.528c.495.255,1.019.509,1.57.736l3.353,1.132c.552.156,1.132.297,1.754.41l3.707.509h.085c.594,0,1.188.085,1.797.113l3.792.113h1.401s3.792-.099,3.792-.099l1.415-.071,3.395-.198c.651,0,1.302-.127,1.938-.212l3.395-.424,1.415-.226,3.678-.665c5.659-1.174,9.903-2.702,11.134-4.032,3.325-3.749,3.325-10.993.877-13.115Z"/><path class="cls-33" d="M346.087,936.891l-18.909,7.527-1.744-1.599,19.515-7.356c.366.478.747.954,1.138,1.428Z"/><path class="cls-33" d="M349.625,940.791l-16.34,9.246-1.645-1.515,16.559-9.213c.468.506.945.999,1.426,1.483Z"/><path class="cls-33" d="M354.485,945.076l-16.032,9.712-1.643-1.501,16-9.546c.566.478,1.125.922,1.674,1.335Z"/><path class="cls-33" d="M360.07,948.295l-17.069,10.683-1.409-1.294,16.549-10.313c.635.326,1.279.633,1.929.925Z"/><path class="cls-18" d="M314.511,485.205l12.97,150.022h21.297s-9.079-119.154-9.079-119.154l-25.2-30.894,35.109-20.492h32.061s24.552,14.812,24.552,14.812c11.928,7.193,18.744,20.528,17.587,34.409l-2.283,15.745-8.002,55.381.104,23.268v26.925h-86.211s-.091-1.012-.091-1.012l-12.827-149.011h.013Z"/><polygon class="cls-20" points="348.829 635.228 327.48 635.228 314.511 485.205 314.498 485.101 314.562 485.179 339.763 516.074 348.829 635.228"/><polygon class="cls-6" points="380.838 463.286 347.752 460.822 346.663 466.464 361.786 471.95 373.329 476.308 381.669 464.687 380.838 463.286"/><rect class="cls-33" x="347.682" y="510.212" width="24.661" height="5.569" transform="translate(720.026 1025.992) rotate(-180)"/><path class="cls-16" d="M460.123,625.138c0-26.276,7.352-50.224,19.409-68.309v-33.723h56.004c41.643,0,75.401,45.685,75.401,102.032s-33.759,102.032-75.401,102.032h-56.004v-33.735c-12.057-18.085-19.409-42.021-19.409-68.297Z"/><ellipse class="cls-28" cx="478.172" cy="628.566" rx="55.65" ry="75.307"/><path class="cls-3" d="M478.172,553.26c2.678.003,5.35.264,7.979.78-26.962,5.236-47.683,36.643-47.683,74.526,0,37.884,20.721,69.29,47.683,74.467-2.629.51-5.301.771-7.979.78-30.733,0-55.65-33.723-55.65-75.307s24.917-75.247,55.65-75.247h0Z"/><path class="cls-3" d="M415.182,637.609l46.784-21.465c3.588-1.537,6.397-4.469,7.778-8.12l24.09-68.711,35.106,8.771-24.48,69.857c-1.429,4.075-.87,8.585,1.513,12.187l23.12,35.91-16.548,37.825-34.279-52.115c-2.151-3.333-7.092-4.574-11.052-2.754l-48.179,22.104-3.853-33.487h0Z"/><path class="cls-23" d="M481.092,523.106c-41.643,0-75.401,45.685-75.401,102.032,0,56.347,33.759,102.032,75.401,102.032s75.401-45.685,75.401-102.032-33.759-102.032-75.401-102.032h0ZM422.523,628.566c0-41.595,24.905-75.307,55.65-75.307s55.661,33.723,55.661,75.307-24.929,75.307-55.661,75.307-55.65-33.711-55.65-75.307Z"/><path class="cls-25" d="M413.191,622.695l24.573,5.089c1.002,6.861-5.033,15.338-10.932,17.01-5.174,1.499-23.196,2.351-23.196,2.351l9.555-24.449Z"/><polygon class="cls-33" points="386.007 614.99 417.597 610.108 420.508 615.375 407.79 622.002 386.007 614.99"/><path class="cls-33" d="M377.32,629.167c.287.288.596.555.908.792.034.008.059.017.093.025.194.059.617.339,1.217.788,4.175,3.142,17.095,14.599,24.058,16.336l9.558-24.45-26.647-7.543-.528-.149s-.042-.025-.127-.076h-.008c-2.917-.866-6.204-.146-8.507,2.152-3.353,3.346-3.359,8.776-.017,12.124Z"/><path class="cls-33" d="M285.774,595.088c19.857,17.622,65.667,27.536,92.415,34.927.025.008.055.013.08.021.199.055.609.331,1.192.771,3.216,1.632,7.247,1.107,9.94-1.579,3.353-3.346,3.359-8.776.013-12.128-.87-.872-1.876-1.516-2.954-1.936l-.528-.149s-.042-.025-.127-.076h-.008c-.93-.542-6.656-3.86-14.974-8.672-16.136-9.346-41.946-24.246-61.096-35.19l-23.953,24.012Z"/><path class="cls-18" d="M286.327,597.096l-3.632-8.21,20.985-90.607c3.658-12.127,10.817-17.808,20.752-17.094,15.201,2.27,16.627,22.178,15.771,30.972-1.647,16.783-9.975,55.458-14.839,67.883l-39.038,17.056Z"/><rect class="cls-19" x="1323.131" y="839.28" width="13.966" height="73.301" transform="translate(-229.795 1197.087) rotate(-45)"/><rect class="cls-34" x="1353.477" y="786.646" width="13.966" height="107.507" transform="translate(-114.115 221.73) rotate(-8.944)"/><polygon class="cls-4" points="1416.357 832.755 1418.222 825.244 1419.323 797.56 1425.389 798.141 1431.184 828.462 1431.186 828.463 1427.982 841.365 1432.471 870.126 1420.397 872.01 1414.321 833.072 1416.357 832.755"/><path class="cls-11" d="M1294.866,820.922c-3.379,0-6.558.85-9.34,2.344l18.162,18.161-8.901,8.901-17.882-17.882c-1.152,2.508-1.799,5.295-1.799,8.235,0,10.913,8.847,19.76,19.76,19.76s19.76-8.847,19.76-19.76-8.847-19.76-19.76-19.76Z"/><polygon class="cls-29" points="1353.118 793.748 1323.713 803.1 1325.453 814.159 1325.777 816.219 1327.518 827.277 1358.374 827.145 1387.779 817.793 1386.038 806.734 1385.714 804.675 1383.974 793.616 1353.118 793.748"/><circle class="cls-9" cx="1417.308" cy="831.453" r="8.63"/><polygon class="cls-9" points="1419.303 832.997 1419.303 825.259 1424.905 798.124 1418.878 797.227 1405.947 825.259 1405.946 825.259 1405.946 838.553 1394.66 865.385 1405.924 870.122 1416.506 844.963 1419.303 838.313 1421.203 833.796 1419.303 832.997"/><polygon class="cls-30" points="1386.069 919.644 1372.576 914.026 1400.932 847.389 1414.425 853.008 1386.069 919.644"/><polygon class="cls-30" points="1441.766 922.338 1427.335 924.662 1416.376 853.077 1430.806 850.753 1441.766 922.338"/><rect class="cls-17" x="1305.968" y="831.996" width="175.986" height="12.967"/><polygon class="cls-20" points="1464.608 827.021 1464.608 878.305 1324.582 878.305 1324.582 827.021 1312.54 827.021 1312.54 878.305 1312.54 944.468 1476.649 944.468 1476.649 878.305 1476.649 827.021 1464.608 827.021"/><path class="cls-11" d="M1391.813,923.972l-.116-.734-5.026-1.303c-.292-.896-.654-1.768-1.081-2.607l2.626-4.484-.435-.6c-1.411-1.946-3.121-3.656-5.067-5.067l-.6-.435-4.486,2.625c-.835-.426-1.702-.786-2.594-1.077l-1.317-5.03-.732-.116c-2.373-.377-4.79-.377-7.163,0l-.734.116-1.303,5.026c-.896.292-1.767.654-2.607,1.081l-4.485-2.625-.6.435c-1.946,1.411-3.656,3.121-5.066,5.067l-.435.6,2.625,4.485c-.426.836-.786,1.704-1.077,2.595l-5.03,1.316-.116.733c-.188,1.188-.284,2.393-.284,3.582s.095,2.394.284,3.582l.116.734,5.026,1.303c.292.896.654,1.768,1.082,2.607l-2.626,4.484.435.6c1.411,1.946,3.121,3.656,5.066,5.066l.6.435,4.486-2.625c.835.425,1.702.785,2.593,1.077l1.317,5.031.732.116c1.185.188,2.382.283,3.582.284,1.2,0,2.397-.096,3.582-.284l.734-.116,1.302-5.026c.896-.292,1.767-.654,2.607-1.081l4.485,2.625.6-.435c1.946-1.411,3.656-3.121,5.067-5.066l.435-.6-2.625-4.485c.426-.836.786-1.704,1.077-2.596l5.03-1.316.116-.732c.188-1.188.284-2.393.284-3.582s-.095-2.394-.284-3.582ZM1369.403,937.528c-5.508,0-9.974-4.465-9.974-9.974s4.465-9.974,9.974-9.974,9.974,4.466,9.974,9.974-4.466,9.974-9.974,9.974Z"/><path class="cls-11" d="M1341.807,929.032l-.094-.593-4.058-1.052c-.236-.723-.528-1.427-.873-2.105l2.12-3.621-.351-.484c-1.139-1.571-2.52-2.952-4.091-4.091l-.484-.351-3.622,2.119c-.674-.344-1.375-.634-2.094-.869l-1.063-4.061-.591-.094c-1.916-.304-3.868-.304-5.784,0l-.593.094-1.052,4.058c-.723.236-1.427.528-2.105.873l-3.621-2.12-.484.351c-1.571,1.139-2.952,2.52-4.091,4.091l-.351.484,2.12,3.621c-.344.675-.635,1.376-.87,2.096l-4.061,1.062-.094.592c-.152.959-.229,1.932-.229,2.892s.077,1.933.229,2.892l.094.593,4.058,1.052c.236.723.528,1.427.873,2.105l-2.12,3.621.351.484c1.139,1.571,2.52,2.952,4.091,4.091l.484.351,3.622-2.119c.674.344,1.374.634,2.094.869l1.063,4.062.591.094c.957.152,1.923.229,2.892.229.969,0,1.935-.078,2.892-.229l.593-.094,1.052-4.058c.723-.236,1.427-.528,2.105-.873l3.621,2.12.484-.351c1.571-1.139,2.952-2.52,4.091-4.091l.351-.484-2.12-3.621c.344-.675.635-1.376.87-2.096l4.061-1.062.094-.591c.152-.959.229-1.932.229-2.892s-.077-1.933-.229-2.892ZM1323.713,939.978c-4.448,0-8.053-3.605-8.053-8.053s3.605-8.053,8.053-8.053,8.053,3.606,8.053,8.053-3.606,8.053-8.053,8.053Z"/></g></svg>